<?xml version="1.0" encoding="iso-8859-1"?>
<!-- Uploaded to: SVG Repo, www.svgrepo.com, Generator: SVG Repo Mixer Tools -->
<svg fill="#000000" height="800px" width="800px" version="1.1" id="Layer_1" xmlns="http://www.w3.org/2000/svg" xmlns:xlink="http://www.w3.org/1999/xlink" 
	 viewBox="0 0 240.472 240.472" xml:space="preserve">
<g>
	<g>
		<g>
			<path d="M119.418,182.784H83.482c-0.624,0-1.132,0.508-1.132,1.136s0.508,1.136,1.132,1.136h35.936
				c0.624,0,1.132-0.508,1.132-1.136S120.042,182.784,119.418,182.784z"/>
			<path d="M114.538,189.06h-26.18c-0.624,0-1.132,0.508-1.132,1.136s0.508,1.136,1.132,1.136h26.18
				c0.624,0,1.132-0.508,1.132-1.136S115.166,189.06,114.538,189.06z"/>
			<path d="M102.722,109.672c8.644,0,15.676-7.68,15.676-17.12c0-9.188-14.26-23.716-14.872-24.328h-1.608
				c-0.608,0.612-14.872,15.14-14.872,24.328C87.046,101.992,94.078,109.672,102.722,109.672z M102.722,70.66
				c3.012,3.204,13.412,14.784,13.412,21.892c0,8.188-6.016,14.852-13.412,14.852S89.31,100.74,89.31,92.552
				C89.314,85.448,99.71,73.864,102.722,70.66z"/>
			<path d="M25.39,168.336l-1.132,1.136v50.68l1.132,1.136h33.612l1.132-1.136v-50.68l-1.132-1.136H25.39z M57.874,219.016H26.526
				v-48.412h31.348V219.016z"/>
			<path d="M230.95,196.98l-1.96-1.684h-14.16c0.052-0.148,0.112-0.296,0.16-0.444c1.736-5.336,1.692-9.992-0.128-13.832
				c-2.784-5.864-9.388-9.356-14.828-11.744c-1.132-0.496-2.276-0.976-3.424-1.456c-4.492-1.884-9.132-3.828-12.544-6.7
				c-3.656-3.076-5.988-11.144-3.396-15.056c0.644-0.68,1.18-1.456,1.584-2.352l-3.648-1.648c-1.456,3.228-6.776,4.256-11.916,5.248
				c-1.212,0.232-2.404,0.464-3.54,0.72c-8.852,2.004-16.904,7.32-22.388,14.54v-58.388c0-15.744-7.204-48.92-24.244-61.848
				c0.516-0.58,0.824-1.236,0.824-2V6.156c-0.012,0.016-0.028,0.028-0.04,0.04C116.866-1.956,86.954-2.06,85.674,5.86
				c-0.04-0.056-0.084-0.104-0.12-0.16v34.636c0,0.684,0.26,1.28,0.68,1.816c-17.828,13.22-24.096,48.184-24.096,62.032v41.728
				c-0.864-0.34-1.752-0.572-2.684-0.572H58.09c0,0,0-9.944,0-10.372c0-2.92-3.78-4.796-8.7-5.7l-3.896-37.264
				c0-0.772,0.084-1.508,0.16-2.176c0.18-1.588,0.352-3.088-0.628-4.184c-0.624-0.696-1.548-1.036-2.828-1.036
				c-1.28,0-2.204,0.34-2.828,1.036c-0.98,1.096-0.808,2.596-0.628,4.184c0.076,0.668,0.16,1.404,0.168,2.028l-3.892,37.368
				c-3.868,0.716-7.32,2.036-8.5,3.988l-0.212,12.128h-1.36c-9.4,0-15.64,19.048-15.64,23.616v61.812
				c0,5.44,6.872,9.704,15.64,9.704h34.512c6.58,0,12.088-2.4,14.428-5.896c7.452,2.24,17.524,3.4,27.568,3.4
				c12.908,0,25.824-1.924,33.164-5.6c4.02,3.348,9.272,6.024,16.24,7.676l40.128,0.052l0.44-0.048
				c15.492-3.524,23.656-11.644,26.248-26.22c7.5-0.364,13.492-6.78,13.492-14.612C231.166,198.46,231.062,197.72,230.95,196.98z
				 M181.486,164.176c3.88,3.264,8.808,5.332,13.576,7.332c1.128,0.472,2.252,0.944,3.364,1.432
				c4.428,1.944,10.58,5.072,12.82,9.796c1.372,2.884,1.352,6.548-0.06,10.876c-0.204,0.628-0.448,1.136-0.676,1.684h-14.696
				c1.208-4.244,1.904-8.676,1.46-12.752c-0.196-1.752-0.548-3.784-1.688-5.62c-1.524-2.448-4.136-4.068-6.66-5.632
				c-1.344-0.832-2.736-1.696-3.892-2.648c-2.428-2-4.356-4.136-5.6-6.72C180.066,162.776,180.746,163.556,181.486,164.176z
				 M175.826,153.192c-0.736,8.672,3.192,13.436,7.764,17.204c1.276,1.052,2.736,1.952,4.14,2.828
				c2.412,1.496,4.688,2.904,5.932,4.904c0.9,1.448,1.188,3.172,1.352,4.668c0.42,3.828-0.312,8.228-1.584,12.5h-17.62
				c0.148-1.352,0.216-2.724,0.1-4.136c-0.208-2.464-0.78-4.88-1.332-7.22c-0.336-1.416-0.672-2.832-0.924-4.256
				c-1.62-8.996,0.036-18.348,2.144-26.804C175.806,152.984,175.81,153.088,175.826,153.192z M171.41,180.088
				c0.26,1.468,0.604,2.92,0.952,4.376c0.56,2.36,1.084,4.592,1.28,6.888c0.112,1.352,0.032,2.66-0.124,3.944h-28.22
				c-0.212-4.32,0.72-8.7,2.892-12.66c1.676-3.064,4.044-5.924,6.328-8.692c3.2-3.876,7.136-8.512,11.076-13.144
				c2.884-3.392,5.76-6.78,8.352-9.872C171.614,159.984,169.626,170.16,171.41,180.088z M141.422,168.756
				c4.732-8.404,13.184-14.692,22.608-16.824c1.092-0.248,2.248-0.472,3.416-0.696c1.304-0.252,2.644-0.516,3.972-0.824
				c-2.38,2.836-4.956,5.868-7.552,8.92c-3.944,4.64-7.892,9.284-11.096,13.168c-2.352,2.848-4.784,5.796-6.568,9.048
				c-2.36,4.296-3.356,9.052-3.14,13.748h-6.488c-0.044-0.384-0.072-0.772-0.096-1.16
				C135.878,184.036,137.498,175.732,141.422,168.756z M101.45,2.72c8.1,0,13.06,2.36,13.06,3.648c0,1.288-4.956,3.648-13.06,3.648
				s-13.06-2.36-13.06-3.648C88.39,5.08,93.35,2.72,101.45,2.72z M88.39,10.212c3.024,1.74,8.052,2.64,13.06,2.64
				s10.036-0.9,13.06-2.64v3.732c-1.848,1.64-6.684,3.076-13.06,3.076c-6.376,0-11.208-1.436-13.06-3.076V10.212z M88.39,15.368
				c2.752,1.812,7.988,2.788,13.06,2.788c5.072,0,10.308-0.976,13.06-2.788l0.004,24.936c-0.264,0.804-4.544,2.828-13.064,2.828
				c-8.52,0-12.796-2.024-13.06-2.792V15.368z M29.142,143.522c0.964,0.635,2.214,1.162,3.684,1.582l-2.376,4.248
				c-0.768-0.356-1.232-0.692-1.308-0.916V143.522z M33.906,145.496c0.016-0.032,0-0.064,0.012-0.096
				c1.344,0.316,2.804,0.536,4.312,0.688l-2.604,4.656c-1.712-0.268-3.088-0.608-4.116-0.968L33.906,145.496z M39.466,146.216
				c0.908,0.06,1.824,0.092,2.732,0.092c0.928,0,1.864-0.032,2.792-0.096l-2.808,5.016c-2.028,0-3.8-0.12-5.352-0.308
				L39.466,146.216z M46.37,146.068c1.772-0.184,3.452-0.484,4.96-0.9l-2.908,5.628c-1.412,0.208-3.056,0.344-4.92,0.392
				L46.37,146.068z M52.726,144.752c0.992-0.352,1.824-0.768,2.528-1.232l0.004,4.88c-0.168,0.512-1.972,1.512-5.444,2.176
				C49.814,150.576,52.722,144.828,52.726,144.752z M42.198,145.176c-6.376,0-11.208-1.436-13.06-3.076v-3.288
				c3.024,1.74,8.052,2.64,13.06,2.64s10.036-0.9,13.06-2.64v3.284C53.41,143.736,48.574,145.176,42.198,145.176z M41.734,92
				c0-0.884-0.092-1.728-0.18-2.496c-0.08-0.692-0.2-1.74-0.088-1.96c0,0,0.164-0.104,0.732-0.104c0.572,0,0.704,0.08,0.704,0.076
				c0.132,0.264,0.016,1.3-0.064,1.988c-0.084,0.768-0.18,1.612-0.172,2.644l4.092,39.148c0,0.816,0,2.98-4.564,2.98
				c-4.564,0-4.564-2.168-4.572-2.832L41.734,92z M34.87,132.056c0.36,3.212,2.964,5.052,7.324,5.052c4.308,0,6.904-1.8,7.308-5.052
				c3.66,0.8,5.752,2.076,5.752,2.908c0,1.288-4.956,3.648-13.06,3.648s-13.06-2.36-13.06-3.648
				C29.138,134.136,31.218,132.856,34.87,132.056z M71.126,230.768h-0.004c0,2.708-4.988,5.736-11.668,5.736H24.942
				c-6.68,0-11.672-3.028-11.672-5.736v-61.816c0-4.04,6.08-19.648,11.672-19.648h1.508c1.224,3.724,10.252,4.756,15.748,4.756
				c5.496,0,14.524-1.032,15.748-4.756h1.512c5.592,0,11.668,15.608,11.668,19.648V230.768z M101.45,234.012
				c-11.172,0-20.208-1.38-26.368-3.196c0-0.016,0.008-0.028,0.008-0.044v-61.82c0-3.376-3.416-14.64-8.984-20.3v-44.468
				c0-15.488,7.072-48.916,23.936-59.74c3.408,1.136,8.064,1.52,11.408,1.52c3.296,0,7.868-0.372,11.264-1.472
				c16.76,10.932,24.08,44.704,24.08,59.692v64.856c-3.468,7.172-4.892,15.48-4.308,25.336c0.016,0.3,0.068,0.616,0.096,0.92h-8.308
				l-1.984,1.984c0,11.532,1.464,23.544,9.308,32.216C125.734,231.924,115.21,234.012,101.45,234.012z M216.722,209.844
				c-0.024,0-0.048,0-0.072,0l-0.488-0.06l-2.136,1.696c-1.4,9.856-5.264,20.484-23.272,24.656h-16.16l8.328-8.776
				c0.368-0.388,0.352-0.996-0.036-1.364c-0.388-0.368-0.988-0.352-1.364,0.036l-9.588,10.104h-8.496l8.328-8.776
				c0.368-0.388,0.352-0.996-0.036-1.364c-0.388-0.368-0.996-0.352-1.364,0.036l-9.588,10.104h-8.496l8.324-8.776
				c0.368-0.388,0.352-0.996-0.036-1.364c-0.388-0.368-0.992-0.352-1.364,0.036l-9.18,9.68c-16.972-4.648-22.36-15.664-23.5-30.94
				h77.928c0.624,0,1.132-0.508,1.132-1.136s-0.508-1.136-1.132-1.136h-78.08c-0.052-1.06-0.088-2.14-0.104-3.24h100.92
				C227.178,205.1,222.646,209.844,216.722,209.844z"/>
		</g>
	</g>
</g>
</svg>