<svg xmlns="http://www.w3.org/2000/svg" xmlns:xlink="http://www.w3.org/1999/xlink" version="1.1" width="256" height="256" viewBox="0 0 256 256" xml:space="preserve">

<defs>
</defs>
<g style="stroke: none; stroke-width: 0; stroke-dasharray: none; stroke-linecap: butt; stroke-linejoin: miter; stroke-miterlimit: 10; fill: none; fill-rule: nonzero; opacity: 1;" transform="translate(1.4065934065934016 1.4065934065934016) scale(2.81 2.81)" >
	<path d="M 36.184 45.497 v 10.086 c 0 1.854 1.517 3.37 3.37 3.37 c 1.854 0 3.37 -1.517 3.37 -3.37 v -5.765 c 0 1.824 1.492 3.316 3.316 3.316 h 0.108 c 1.824 0 3.316 -1.492 3.316 -3.316 v 10.234 c 0 1.825 1.493 3.318 3.318 3.318 h 0.104 c 1.825 0 3.318 -1.493 3.318 -3.318 V 45.497 C 49.846 42.3 43.092 42.536 36.184 45.497 z" style="stroke: none; stroke-width: 1; stroke-dasharray: none; stroke-linecap: butt; stroke-linejoin: miter; stroke-miterlimit: 10; fill: rgb(242,179,216); fill-rule: nonzero; opacity: 1;" transform=" matrix(1 0 0 1 0 0) " stroke-linecap="round" />
	<path d="M 56.406 45.497 H 36.184 V 33.62 c 6.088 -3.445 12.937 -2.877 20.222 0 V 45.497 z" style="stroke: none; stroke-width: 1; stroke-dasharray: none; stroke-linecap: butt; stroke-linejoin: miter; stroke-miterlimit: 10; fill: rgb(229,146,191); fill-rule: nonzero; opacity: 1;" transform=" matrix(1 0 0 1 0 0) " stroke-linecap="round" />
	<path d="M 49.879 19.35 V 3.584 C 49.879 1.613 48.266 0 46.295 0 h 0 c -1.971 0 -3.584 1.613 -3.584 3.584 V 19.35 L 49.879 19.35 z" style="stroke: none; stroke-width: 1; stroke-dasharray: none; stroke-linecap: butt; stroke-linejoin: miter; stroke-miterlimit: 10; fill: rgb(174,173,179); fill-rule: nonzero; opacity: 1;" transform=" matrix(1 0 0 1 0 0) " stroke-linecap="round" />
	<path d="M 46.295 39.732 c -0.552 0 -1 -0.448 -1 -1 v -5.112 c 0 -0.552 0.448 -1 1 -1 c 0.553 0 1 0.448 1 1 v 5.112 C 47.295 39.285 46.848 39.732 46.295 39.732 z" style="stroke: none; stroke-width: 1; stroke-dasharray: none; stroke-linecap: butt; stroke-linejoin: miter; stroke-miterlimit: 10; fill: rgb(242,179,216); fill-rule: nonzero; opacity: 1;" transform=" matrix(1 0 0 1 0 0) " stroke-linecap="round" />
	<path d="M 41.7 42.675 c -0.552 0 -1 -0.448 -1 -1 v -8.055 c 0 -0.552 0.448 -1 1 -1 s 1 0.448 1 1 v 8.055 C 42.7 42.228 42.252 42.675 41.7 42.675 z" style="stroke: none; stroke-width: 1; stroke-dasharray: none; stroke-linecap: butt; stroke-linejoin: miter; stroke-miterlimit: 10; fill: rgb(242,179,216); fill-rule: nonzero; opacity: 1;" transform=" matrix(1 0 0 1 0 0) " stroke-linecap="round" />
	<path d="M 50.89 42.675 c -0.553 0 -1 -0.448 -1 -1 v -8.055 c 0 -0.552 0.447 -1 1 -1 s 1 0.448 1 1 v 8.055 C 51.89 42.228 51.442 42.675 50.89 42.675 z" style="stroke: none; stroke-width: 1; stroke-dasharray: none; stroke-linecap: butt; stroke-linejoin: miter; stroke-miterlimit: 10; fill: rgb(242,179,216); fill-rule: nonzero; opacity: 1;" transform=" matrix(1 0 0 1 0 0) " stroke-linecap="round" />
	<path d="M 49.944 90 h -9.888 c -11.532 0 -20.88 -9.348 -20.88 -20.88 v -0.475 h 51.647 v 0.475 C 70.824 80.652 61.476 90 49.944 90 z" style="stroke: none; stroke-width: 1; stroke-dasharray: none; stroke-linecap: butt; stroke-linejoin: miter; stroke-miterlimit: 10; fill: rgb(174,173,179); fill-rule: nonzero; opacity: 1;" transform=" matrix(1 0 0 1 0 0) " stroke-linecap="round" />
	<path d="M 59.509 33.62 H 33.081 v -1.845 c 0 -7.136 5.785 -12.92 12.92 -12.92 h 0.587 c 7.136 0 12.92 5.785 12.92 12.92 V 33.62 z" style="stroke: none; stroke-width: 1; stroke-dasharray: none; stroke-linecap: butt; stroke-linejoin: miter; stroke-miterlimit: 10; fill: rgb(207,205,210); fill-rule: nonzero; opacity: 1;" transform=" matrix(1 0 0 1 0 0) " stroke-linecap="round" />
</g>
</svg>