<?xml version="1.0" encoding="iso-8859-1"?>
<!-- Uploaded to: SVG Repo, www.svgrepo.com, Generator: SVG Repo Mixer Tools -->
<svg version="1.1" id="Layer_1" xmlns="http://www.w3.org/2000/svg" xmlns:xlink="http://www.w3.org/1999/xlink" 
	 viewBox="0 0 512 512" xml:space="preserve">
<polygon style="fill:#00ABE9;" points="512,201.99 443.058,271.323 376.253,204.139 376.253,471.681 135.747,471.681 
	135.747,204.139 116.547,223.439 68.931,271.323 0,201.99 116.547,84.787 135.925,65.299 136.103,65.119 375.886,65.119 "/>
<polygon style="fill:#0081D1;" points="512,201.99 443.058,271.323 396.199,224.197 376.821,204.706 376.253,204.139 
	376.253,471.681 256,471.681 256,65.119 375.886,65.119 376.821,66.054 396.199,85.544 "/>
<g>
	<rect x="179.07" y="105.737" style="fill:#FF633E;" width="36.05" height="365.95"/>
	<rect x="296.87" y="105.737" style="fill:#FF633E;" width="36.05" height="365.95"/>
</g>
<g>
	<rect x="179.07" y="105.737" style="fill:#FF3100;" width="36.05" height="23.741"/>
	<rect x="296.87" y="105.737" style="fill:#FF3100;" width="36.05" height="23.741"/>
</g>
<polygon style="fill:#FF633E;" points="206.841,40.313 166.811,108.688 239.509,109.559 272.48,109.559 345.178,108.688 
	305.148,40.313 "/>
<polygon style="fill:#4B494F;" points="206.841,65.117 206.841,40.313 305.148,40.313 305.148,65.117 255.994,125.913 "/>
<polygon style="fill:#0081D1;" points="135.747,204.139 116.547,223.439 116.547,84.787 135.925,65.299 "/>
<polygon style="fill:#0074BD;" points="396.199,85.544 396.199,224.197 376.821,204.706 376.821,66.054 "/>
</svg>