<svg class="svg-icon" style="width: 1em; height: 1em;vertical-align: middle;fill: currentColor;overflow: hidden;" viewBox="0 0 1024 1024" version="1.1" xmlns="http://www.w3.org/2000/svg"><path d="M768 85.333333H554.666667c0 23.466667-19.2 42.666667-42.666667 42.666667s-42.666667-19.2-42.666667-42.666667H256C209.066667 85.333333 170.666667 123.733333 170.666667 170.666667v682.666666c0 46.933333 38.4 85.333333 85.333333 85.333334h512c46.933333 0 85.333333-38.4 85.333333-85.333334V170.666667c0-46.933333-38.4-85.333333-85.333333-85.333334z" fill="#455A64" /><path d="M768 874.666667H256c-12.8 0-21.333333-8.533333-21.333333-21.333334V170.666667c0-12.8 8.533333-21.333333 21.333333-21.333334h512c12.8 0 21.333333 8.533333 21.333333 21.333334v682.666666c0 12.8-8.533333 21.333333-21.333333 21.333334z" fill="#FFFFFF" /><path d="M554.666667 85.333333c0 23.466667-19.2 42.666667-42.666667 42.666667s-42.666667-19.2-42.666667-42.666667h-149.333333v85.333334c0 23.466667 19.2 42.666667 42.666667 42.666666h298.666666c23.466667 0 42.666667-19.2 42.666667-42.666666V85.333333h-149.333333z" fill="#90A4AE" /><path d="M512 0c-46.933333 0-85.333333 38.4-85.333333 85.333333s38.4 85.333333 85.333333 85.333334 85.333333-38.4 85.333333-85.333334-38.4-85.333333-85.333333-85.333333z m0 128c-23.466667 0-42.666667-19.2-42.666667-42.666667s19.2-42.666667 42.666667-42.666666 42.666667 19.2 42.666667 42.666666-19.2 42.666667-42.666667 42.666667z" fill="#90A4AE" /><path d="M652.8 396.8l-192 192-89.6-91.733333-53.333333 53.333333 145.066666 142.933333 243.2-243.2z" fill="#4CAF50" /></svg>