<?xml version="1.0" encoding="iso-8859-1"?>
<!-- Uploaded to: SVG Repo, www.svgrepo.com, Generator: SVG Repo Mixer Tools -->
<svg height="800px" width="800px" version="1.1" id="Capa_1" xmlns="http://www.w3.org/2000/svg" xmlns:xlink="http://www.w3.org/1999/xlink" 
	 viewBox="0 0 463.942 463.942" xml:space="preserve">
<g>
	<path style="fill:#D2504B;" d="M90.5,214.629c-9.32-3.295-16-12.18-16-22.629c0-13.255,10.745-24,24-24s24,10.745,24,24
		c0,10.449-6.68,19.334-16,22.629V252c0,3.954,0.65,7.757,1.833,11.319C143.443,258.522,170.5,228.427,170.5,192V16
		c0-8.837-7.163-16-16-16h-112c-8.837,0-16,7.163-16,16v173.534c0,37.719,28.004,70.71,65.338,74.141
		c-0.865-3.756-1.338-7.66-1.338-11.675V214.629z M50.5,67.446c0-15.6,12.598-28.246,28.138-28.246
		c7.753,0,14.773,3.15,19.862,8.242c5.089-5.092,12.109-8.242,19.862-8.242c15.54,0,28.138,12.646,28.138,28.246
		c0,21.6-25.242,47.562-48,58.154C75.742,115.008,50.5,89.046,50.5,67.446z"/>
	<path style="fill:#EBD2AA;" d="M435.349,366.906L306.505,238.062c7.021-19.733,2.64-42.615-13.155-58.409
		c-18.112-18.112-45.538-21.208-66.852-9.319c5.072-1.51,10.44-2.333,16.002-2.333c30.928,0,56,25.072,56,56
		c0,21.042-11.612,39.364-28.771,48.933c0.952-0.282,1.897-0.596,2.835-0.93l54.728,54.728l11.313-0.001l5.658,5.658l0.001,11.314
		l5.657,5.657l11.313-0.001l5.656,5.656l-0.001,11.313L378.561,378c3.358,3.358,8.033,5.05,12.762,4.621l39.641-3.604
		C436.969,378.471,439.612,371.169,435.349,366.906z M395.174,360.671c-3.124,3.124-8.19,3.124-11.314,0l-84.853-84.853
		c-3.124-3.124-3.124-8.189,0-11.314h0c3.124-3.124,8.189-3.124,11.314,0l84.853,84.853
		C398.298,352.482,398.298,357.547,395.174,360.671z"/>
	<path style="fill:#FFE6B9;" d="M310.321,264.505c-3.124-3.124-8.19-3.124-11.314,0h0c-3.124,3.124-3.124,8.189,0,11.314
		l84.853,84.853c3.124,3.124,8.19,3.124,11.314,0s3.124-8.19,0-11.314L310.321,264.505z"/>
	<path style="fill:#EBD2AA;" d="M253.752,219.25c-6.242,6.242-16.358,6.247-22.607,0.018c2.899,2.921,6.914,4.732,11.355,4.732
		c8.836,0,16-7.164,16-16c0-4.429-1.8-8.436-4.708-11.333C259.998,202.918,259.986,213.016,253.752,219.25z"/>
	<path style="fill:#EBD2AA;" d="M230.462,218.516c-0.104-0.117-0.216-0.23-0.316-0.35
		C230.245,218.288,230.358,218.398,230.462,218.516z"/>
	<path style="fill:#EBD2AA;" d="M242.5,288L242.5,288c-4.418,0-8,3.582-8,8v120c0,4.418,3.582,8,8,8h0c4.418,0,8-3.582,8-8V296
		C250.5,291.582,246.918,288,242.5,288z"/>
	<path style="fill:#FFE6B9;" d="M298.5,224c0-30.928-25.072-56-56-56c-5.562,0-10.93,0.823-16.002,2.333
		C203.37,177.219,186.5,198.635,186.5,224c0,0.109,0.008,0.217,0.008,0.326c8.906-14.105,24.394-23.647,42.121-24.279
		c2.761-4.804,7.932-8.047,13.871-8.047c4.408,0,8.399,1.783,11.292,4.667c2.907,2.897,4.708,6.904,4.708,11.333
		c0,8.836-7.164,16-16,16c-4.44,0-8.456-1.811-11.355-4.732c-0.239-0.24-0.461-0.497-0.684-0.752
		c-0.104-0.118-0.216-0.228-0.316-0.35c-0.545-0.661-1.025-1.376-1.459-2.12C209.674,216.994,194.5,232.757,194.5,252
		c0,0.273-0.016,0.543-0.021,0.815c5.667,9.424,14.029,17.041,24.021,21.788v77.397l8,7.999v8.001l-8,8.001v8l8,7.999v7.999
		l-8,7.999v16.508c0,4.748,2.109,9.251,5.757,12.292l30.579,25.482c4.632,3.86,11.664,0.566,11.664-5.463V274.604
		c1.097-0.521,2.172-1.081,3.229-1.671C286.888,263.364,298.5,245.042,298.5,224z M250.5,416c0,4.418-3.582,8-8,8h0
		c-4.418,0-8-3.582-8-8V296c0-4.418,3.582-8,8-8h0c4.418,0,8,3.582,8,8V416z"/>
	<path style="fill:#D7C3AA;" d="M228.686,216.046c0.601-0.03,1.206-0.046,1.814-0.046h12c4.418,0,8-3.578,8-8s-3.582-8-8-8h-12
		c-0.627,0-1.249,0.025-1.871,0.047c-17.727,0.631-33.215,10.173-42.121,24.279c-5.064,8.021-8.008,17.508-8.008,27.674
		c0,19.852-16.148,36-36,36c-15.898,0-29.411-10.361-34.167-24.681c-1.183-3.562-1.833-7.365-1.833-11.319v-37.371V192
		c0-4.422-3.582-8-8-8s-8,3.578-8,8v22.629V252c0,4.015,0.473,7.919,1.338,11.675C97.153,286.742,117.843,304,142.5,304
		c28.398,0,51.54-22.889,51.979-51.185c0.004-0.272,0.021-0.542,0.021-0.815C194.5,232.757,209.674,216.994,228.686,216.046z"/>
	<path style="fill:#FFD7B4;" d="M146.5,67.446c0-15.6-12.598-28.246-28.138-28.246c-7.753,0-14.773,3.15-19.862,8.242
		C93.41,42.35,86.391,39.2,78.638,39.2C63.098,39.2,50.5,51.846,50.5,67.446c0,21.6,25.242,47.562,48,58.154
		C121.258,115.008,146.5,89.046,146.5,67.446z"/>
</g>
</svg>