<?xml version="1.0" encoding="iso-8859-1"?>
<!-- Uploaded to: SVG Repo, www.svgrepo.com, Generator: SVG Repo Mixer Tools -->
<svg height="800px" width="800px" version="1.1" id="Layer_1" xmlns="http://www.w3.org/2000/svg" xmlns:xlink="http://www.w3.org/1999/xlink" 
	 viewBox="0 0 512.883 512.883" xml:space="preserve">
<path style="fill:#E8EDEE;" d="M0,106.372v386.648c0,10.593,8.828,19.421,19.421,19.421h104.166h264.828h104.166
	c10.593,0,19.421-8.828,19.421-19.421V106.372H0z"/>
<path style="fill:#546A79;" d="M512,106.372H0V17.214C0,7.503,7.062,0.441,16.772,0.441H496.11c8.828,0,16.772,7.062,16.772,16.772
	v89.159H512z"/>
<path style="fill:#ED7161;" d="M79.448,53.407c0,15.007-11.476,26.483-26.483,26.483S26.483,68.414,26.483,53.407
	s11.476-26.483,26.483-26.483S79.448,38.4,79.448,53.407"/>
<path style="fill:#ECBA16;" d="M158.897,53.407c0,15.007-11.476,26.483-26.483,26.483c-15.007,0-26.483-11.476-26.483-26.483
	s11.476-26.483,26.483-26.483C147.421,26.924,158.897,38.4,158.897,53.407"/>
<path style="fill:#42B05C;" d="M238.345,53.407c0,15.007-11.476,26.483-26.483,26.483c-15.007,0-26.483-11.476-26.483-26.483
	s11.476-26.483,26.483-26.483C226.869,26.924,238.345,38.4,238.345,53.407"/>
<path style="fill:#B1BBBC;" d="M178.317,318.234H51.2c-4.414,0-7.062-2.648-7.062-7.062V148.745c0-4.414,2.648-7.062,7.062-7.062
	h128c3.531,0,7.062,2.648,7.062,7.062v163.31C185.379,315.586,182.731,318.234,178.317,318.234"/>
<path style="fill:#546A79;" d="M185.379,185.821H44.138v-37.076c0-4.414,2.648-7.062,7.062-7.062h128
	c3.531,0,7.062,2.648,7.062,7.062L185.379,185.821L185.379,185.821z"/>
<path style="fill:#42B05C;" d="M143.89,282.924H85.628c-3.531,0-6.179-2.648-6.179-6.179v-22.952c0-3.531,2.648-6.179,6.179-6.179
	h58.262c3.531,0,6.179,2.648,6.179,6.179v22.952C150.069,280.276,147.421,282.924,143.89,282.924"/>
<path style="fill:#B1BBBC;" d="M256,512.441H15.89c-8.828,0-15.89-7.062-15.89-15.89V353.545h256V512.441z"/>
<path style="fill:#546A79;" d="M496.993,512.441H256V353.545h256v143.007C512,505.379,504.938,512.441,496.993,512.441"/>
<path style="fill:#7383BF;" d="M158.897,406.51H44.138c-5.297,0-8.828-3.531-8.828-8.828s3.531-8.828,8.828-8.828h114.759
	c5.297,0,8.828,3.531,8.828,8.828S164.193,406.51,158.897,406.51"/>
<path style="fill:#DD342E;" d="M211.862,406.51h-17.655c-5.297,0-8.828-3.531-8.828-8.828s3.531-8.828,8.828-8.828h17.655
	c5.297,0,8.828,3.531,8.828,8.828S217.159,406.51,211.862,406.51"/>
<path style="fill:#42B05C;" d="M211.862,441.821h-44.138c-5.297,0-8.828-3.531-8.828-8.828s3.531-8.828,8.828-8.828h44.138
	c5.297,0,8.828,3.531,8.828,8.828S217.159,441.821,211.862,441.821"/>
<path style="fill:#DD342E;" d="M52.966,441.821h-8.828c-5.297,0-8.828-3.531-8.828-8.828s3.531-8.828,8.828-8.828h8.828
	c5.297,0,8.828,3.531,8.828,8.828S58.262,441.821,52.966,441.821"/>
<g>
	<path style="fill:#ECBA16;" d="M132.414,441.821h-35.31c-5.297,0-8.828-3.531-8.828-8.828s3.531-8.828,8.828-8.828h35.31
		c5.297,0,8.828,3.531,8.828,8.828S137.71,441.821,132.414,441.821"/>
	<path style="fill:#ECBA16;" d="M61.793,477.131H44.138c-5.297,0-8.828-3.531-8.828-8.828s3.531-8.828,8.828-8.828h17.655
		c5.297,0,8.828,3.531,8.828,8.828S67.09,477.131,61.793,477.131"/>
</g>
<path style="fill:#7383BF;" d="M114.759,477.131H97.103c-5.297,0-8.828-3.531-8.828-8.828s3.531-8.828,8.828-8.828h17.655
	c5.297,0,8.828,3.531,8.828,8.828S120.055,477.131,114.759,477.131"/>
<g>
	<path style="fill:#DD342E;" d="M211.862,477.131h-61.793c-5.297,0-8.828-3.531-8.828-8.828s3.531-8.828,8.828-8.828h61.793
		c5.297,0,8.828,3.531,8.828,8.828S217.159,477.131,211.862,477.131"/>
	<path style="fill:#DD342E;" d="M467.862,406.51H353.103c-5.297,0-8.828-3.531-8.828-8.828s3.531-8.828,8.828-8.828h114.759
		c5.297,0,8.828,3.531,8.828,8.828S473.159,406.51,467.862,406.51"/>
</g>
<path style="fill:#7383BF;" d="M317.793,406.51h-17.655c-5.297,0-8.828-3.531-8.828-8.828s3.531-8.828,8.828-8.828h17.655
	c5.297,0,8.828,3.531,8.828,8.828S323.09,406.51,317.793,406.51"/>
<path style="fill:#42B05C;" d="M344.276,441.821h-44.138c-5.297,0-8.828-3.531-8.828-8.828s3.531-8.828,8.828-8.828h44.138
	c5.297,0,8.828,3.531,8.828,8.828S349.572,441.821,344.276,441.821"/>
<path style="fill:#7383BF;" d="M467.862,441.821h-8.828c-5.297,0-8.828-3.531-8.828-8.828s3.531-8.828,8.828-8.828h8.828
	c5.297,0,8.828,3.531,8.828,8.828S473.159,441.821,467.862,441.821"/>
<g>
	<path style="fill:#ECBA16;" d="M414.897,441.821h-35.31c-5.297,0-8.828-3.531-8.828-8.828s3.531-8.828,8.828-8.828h35.31
		c5.297,0,8.828,3.531,8.828,8.828S420.193,441.821,414.897,441.821"/>
	<path style="fill:#ECBA16;" d="M467.862,477.131h-17.655c-5.297,0-8.828-3.531-8.828-8.828s3.531-8.828,8.828-8.828h17.655
		c5.297,0,8.828,3.531,8.828,8.828S473.159,477.131,467.862,477.131"/>
</g>
<path style="fill:#42B05C;" d="M414.897,477.131h-17.655c-5.297,0-8.828-3.531-8.828-8.828s3.531-8.828,8.828-8.828h17.655
	c5.297,0,8.828,3.531,8.828,8.828S420.193,477.131,414.897,477.131"/>
<path style="fill:#DD342E;" d="M361.931,477.131h-61.793c-5.297,0-8.828-3.531-8.828-8.828s3.531-8.828,8.828-8.828h61.793
	c5.297,0,8.828,3.531,8.828,8.828S367.228,477.131,361.931,477.131"/>
<g>
	<path style="fill:#7383BF;" d="M414.897,176.993H282.483c-5.297,0-8.828-3.531-8.828-8.828s3.531-8.828,8.828-8.828h132.414
		c5.297,0,8.828,3.531,8.828,8.828S420.193,176.993,414.897,176.993"/>
	<path style="fill:#7383BF;" d="M353.103,300.579h-70.621c-5.297,0-8.828-3.531-8.828-8.828s3.531-8.828,8.828-8.828h70.621
		c5.297,0,8.828,3.531,8.828,8.828S358.4,300.579,353.103,300.579"/>
	<path style="fill:#7383BF;" d="M467.862,300.579h-61.793c-5.297,0-8.828-3.531-8.828-8.828s3.531-8.828,8.828-8.828h61.793
		c5.297,0,8.828,3.531,8.828,8.828S473.159,300.579,467.862,300.579"/>
</g>
<g>
	<path style="fill:#42B05C;" d="M467.862,168.166c0,15.007-11.476,26.483-26.483,26.483s-26.483-11.476-26.483-26.483
		s11.476-26.483,26.483-26.483S467.862,153.159,467.862,168.166"/>
	<path style="fill:#42B05C;" d="M406.069,291.752c0,15.007-11.476,26.483-26.483,26.483s-26.483-11.476-26.483-26.483
		s11.476-26.483,26.483-26.483S406.069,276.745,406.069,291.752"/>
</g>
</svg>