<?xml version="1.0"?>
<svg xmlns="http://www.w3.org/2000/svg" xmlns:xlink="http://www.w3.org/1999/xlink" xmlns:svgjs="http://svgjs.com/svgjs" version="1.1" width="512" height="512" x="0" y="0" viewBox="0 0 511 511.999" style="enable-background:new 0 0 512 512" xml:space="preserve" class=""><g><path xmlns="http://www.w3.org/2000/svg" d="m346.730469 91.542969h-338.730469c-4.144531 0-7.5 3.359375-7.5 7.5v404.726562c0 4.140625 3.355469 7.5 7.5 7.5h338.730469c4.144531 0 7.5-3.359375 7.5-7.5v-404.726562c0-4.140625-3.355469-7.5-7.5-7.5zm0 0" fill="#81d4fa" data-original="#fff2cc" style="" class=""/><path xmlns="http://www.w3.org/2000/svg" d="m346.730469 91.542969h-26.996094v95.46875h-32.496094c-5.351562 0-9.691406 4.339843-9.691406 9.691406v21.304687h-8.519531c-5.355469 0-9.695313 4.339844-9.695313 9.695313v45.738281c0 5.355469 4.339844 9.695313 9.695313 9.695313h11.707031v199.632812c0 9.363281 11.390625 24.453125 20.460937 28.5h45.535157c4.144531 0 7.5-3.355469 7.5-7.5v-404.726562c0-4.140625-3.355469-7.5-7.5-7.5zm0 0" fill="#4fc3f7" data-original="#ffe6a9" style="" class=""/><path xmlns="http://www.w3.org/2000/svg" d="m277.578125 131.78125v-31.570312c0-55.257813-44.957031-100.210938-100.214844-100.210938-55.253906 0-100.210937 44.953125-100.210937 100.210938v31.570312c-3.53125 2.40625-5.855469 6.457031-5.855469 11.042969 0 7.363281 5.992187 13.355469 13.355469 13.355469 7.367187 0 13.355468-5.992188 13.355468-13.355469 0-4.585938-2.324218-8.640625-5.855468-11.042969v-31.570312c0-46.988282 38.226562-85.210938 85.214844-85.210938 46.984374 0 85.210937 38.222656 85.210937 85.210938v31.570312c-3.53125 2.402344-5.859375 6.457031-5.859375 11.042969 0 7.363281 5.992188 13.355469 13.359375 13.355469 7.363281 0 13.355469-5.992188 13.355469-13.355469 0-4.585938-2.324219-8.636719-5.855469-11.042969zm0 0" fill="#34444c" data-original="#dd7917" style="" class=""/><path xmlns="http://www.w3.org/2000/svg" d="m229.695312 275.664062h-21.972656v-21.972656c0-8.65625-7.042968-15.699218-15.699218-15.699218h-29.316407c-8.65625 0-15.699219 7.042968-15.699219 15.699218v21.972656h-21.972656c-8.65625 0-15.699218 7.042969-15.699218 15.699219v29.316407c0 8.65625 7.042968 15.695312 15.699218 15.695312h21.972656v21.976562c0 8.65625 7.042969 15.699219 15.699219 15.699219h29.316407c8.65625 0 15.699218-7.042969 15.699218-15.699219v-21.976562h21.972656c8.65625 0 15.699219-7.039062 15.699219-15.695312v-29.316407c0-8.65625-7.042969-15.699219-15.699219-15.699219zm0 0" fill="#f72250" data-original="#e93234" style="" class=""/><path xmlns="http://www.w3.org/2000/svg" d="m445.953125 268.132812h-138.21875c-4.140625 0-7.5 3.359376-7.5 7.5v207.132813c0 16.121094 13.113281 29.234375 29.234375 29.234375h94.75c16.117188 0 29.230469-13.113281 29.230469-29.234375v-207.132813c.003906-4.140624-3.355469-7.5-7.496094-7.5zm0 0" fill="#ffc300" data-original="#ffd039" style="" class=""/><path xmlns="http://www.w3.org/2000/svg" d="m445.953125 268.132812h-34.5c4.144531 0 7.5 3.359376 7.5 7.5v207.132813c0 16.121094-13.113281 29.234375-29.234375 29.234375h34.5c16.121094 0 29.234375-13.113281 29.234375-29.234375v-207.132813c0-4.140624-3.359375-7.5-7.5-7.5zm0 0" fill="#d1a000" data-original="#ffae47" style="" class=""/><path xmlns="http://www.w3.org/2000/svg" d="m300.234375 325.015625h153.21875v130.101563h-153.21875zm0 0" fill="#f9f1ef" data-original="#f9f1ef" style="" class=""/><path xmlns="http://www.w3.org/2000/svg" d="m418.953125 325.015625h34.5v130.101563h-34.5zm0 0" fill="#cccccc" data-original="#cccccc" style="" class=""/><path xmlns="http://www.w3.org/2000/svg" d="m414.6875 380.527344h-75.6875c-4.140625 0-7.5-3.359375-7.5-7.5 0-4.144532 3.359375-7.5 7.5-7.5h75.6875c4.140625 0 7.5 3.355468 7.5 7.5 0 4.140625-3.359375 7.5-7.5 7.5zm0 0" fill="#1b2428" data-original="#494949" style="" class=""/><path xmlns="http://www.w3.org/2000/svg" d="m414.6875 410.886719h-75.6875c-4.140625 0-7.5-3.355469-7.5-7.5 0-4.140625 3.359375-7.5 7.5-7.5h75.6875c4.140625 0 7.5 3.359375 7.5 7.5 0 4.144531-3.359375 7.5-7.5 7.5zm0 0" fill="#1b2428" data-original="#494949" style="" class=""/><path xmlns="http://www.w3.org/2000/svg" d="m449.140625 187.011719h-144.59375c-4.144531 0-7.5 3.355469-7.5 7.496093v31c0 4.144532 3.355469 7.5 7.5 7.5h144.597656c4.140625 0 7.5-3.355468 7.5-7.5v-31c-.003906-4.140624-3.359375-7.496093-7.503906-7.496093zm0 0" fill="#34444c" data-original="#992228" style="" class=""/><path xmlns="http://www.w3.org/2000/svg" d="m449.140625 187.011719h-26.996094v45.996093h26.996094c4.144531 0 7.5-3.355468 7.5-7.5v-31c0-4.140624-3.355469-7.496093-7.5-7.496093zm0 0" fill="#1b2428" data-original="#721c28" style="" class=""/><path xmlns="http://www.w3.org/2000/svg" d="m467.355469 218.007812h-181.023438c-4.140625 0-7.5 3.355469-7.5 7.5v50.128907c0 4.140625 3.359375 7.5 7.5 7.5h181.023438c4.140625 0 7.5-3.359375 7.5-7.5v-50.128907c0-4.144531-3.359375-7.5-7.5-7.5zm0 0" fill="#f72250" data-original="#e93234" style="" class=""/><path xmlns="http://www.w3.org/2000/svg" d="m467.355469 218.007812h-27v65.128907h27c4.140625 0 7.5-3.359375 7.5-7.5v-50.128907c0-4.144531-3.359375-7.5-7.5-7.5zm0 0" fill="#d70230" data-original="#bf161c" style="" class=""/><g xmlns="http://www.w3.org/2000/svg" fill="#992228"><path d="m313.773438 246.183594c-4.144532 0-7.5 3.355468-7.5 7.5v29.449218h15v-29.449218c0-4.144532-3.359376-7.5-7.5-7.5zm0 0" fill="#34444c" data-original="#992228" style="" class=""/><path d="m339 246.183594c-4.140625 0-7.5 3.355468-7.5 7.5v29.449218h15v-29.449218c0-4.144532-3.355469-7.5-7.5-7.5zm0 0" fill="#34444c" data-original="#992228" style="" class=""/><path d="m364.230469 246.183594c-4.144531 0-7.5 3.355468-7.5 7.5v29.449218h15v-29.449218c0-4.144532-3.359375-7.5-7.5-7.5zm0 0" fill="#34444c" data-original="#992228" style="" class=""/><path d="m389.457031 246.183594c-4.140625 0-7.5 3.355468-7.5 7.5v29.449218h15v-29.449218c0-4.144532-3.355469-7.5-7.5-7.5zm0 0" fill="#34444c" data-original="#992228" style="" class=""/><path d="m414.6875 246.183594c-4.144531 0-7.5 3.355468-7.5 7.5v29.449218h15v-29.449218c0-4.144532-3.359375-7.5-7.5-7.5zm0 0" fill="#34444c" data-original="#992228" style="" class=""/><path d="m439.914062 246.183594c-4.140624 0-7.5 3.355468-7.5 7.5v29.449218h15v-29.449218c0-4.144532-3.355468-7.5-7.5-7.5zm0 0" fill="#34444c" data-original="#992228" style="" class=""/></g></g></svg>
