<?xml version="1.0" encoding="iso-8859-1"?>
<!-- Uploaded to: SVG Repo, www.svgrepo.com, Generator: SVG Repo Mixer Tools -->
<svg height="800px" width="800px" version="1.1" id="Layer_1" xmlns="http://www.w3.org/2000/svg" xmlns:xlink="http://www.w3.org/1999/xlink" 
	 viewBox="0 0 512 512" xml:space="preserve">
<g>
	<g>
		<path style="fill:#CDCDCD;" d="M26.483,414.897c-4.873,0-8.828-3.946-8.828-8.828v-35.31c0-4.882,3.955-8.828,8.828-8.828
			s8.828,3.946,8.828,8.828v35.31C35.31,410.951,31.356,414.897,26.483,414.897"/>
		<path style="fill:#CDCDCD;" d="M308.966,150.069c-4.873,0-8.828-3.946-8.828-8.828V79.448c0-4.882,3.955-8.828,8.828-8.828
			s8.828,3.946,8.828,8.828v61.793C317.793,146.123,313.838,150.069,308.966,150.069"/>
		<path style="fill:#CDCDCD;" d="M476.69,335.448h-26.483c-4.882,0-8.828-3.946-8.828-8.828c0-4.882,3.946-8.828,8.828-8.828h26.483
			c4.882,0,8.828,3.946,8.828,8.828C485.517,331.502,481.571,335.448,476.69,335.448"/>
	</g>
	<path style="fill:#62564B;" d="M0,273.655V141.241c0-14.566,11.917-26.483,26.483-26.483c9.71,0,18.247,5.297,22.855,13.144
		c5.923,10.09,13.383,19.191,23.411,25.212l0,0c15.934,9.56,34.172,14.61,52.754,14.61h6.453c12.014,0,23.967-1.721,35.496-5.111
		l92.813-27.304c89.953-26.447,184.276,35.919,189.687,129.518c0.168,2.922,0.256,5.862,0.256,8.828v167.724H264.828l22.81-91.233
		c6.524-26.112-3.699-54.466-26.924-68.061c-9.154-5.358-19.809-8.43-31.197-8.43H105.931c-29.255,0-52.966,23.711-52.966,52.966
		v17.655c0,14.566-11.917,26.483-26.483,26.483S0,358.841,0,344.276V273.655z"/>
	<g>
		<path style="fill:#B9A795;" d="M485.517,494.345H26.483C11.855,494.345,0,482.489,0,467.862s11.855-26.483,26.483-26.483h459.034
			c14.627,0,26.483,11.855,26.483,26.483S500.145,494.345,485.517,494.345"/>
		<path style="fill:#B9A795;" d="M353.103,388.414c0,4.873-3.955,8.828-8.828,8.828c-4.873,0-8.828-3.955-8.828-8.828
			s3.955-8.828,8.828-8.828C349.149,379.586,353.103,383.541,353.103,388.414"/>
	</g>
	<path d="M353.103,238.345c0,4.873-3.955,8.828-8.828,8.828c-4.873,0-8.828-3.955-8.828-8.828c0-4.873,3.955-8.828,8.828-8.828
		C349.149,229.517,353.103,233.472,353.103,238.345"/>
	<path style="fill:#B9A795;" d="M388.414,388.414c0,4.873-3.955,8.828-8.828,8.828s-8.828-3.955-8.828-8.828
		s3.955-8.828,8.828-8.828S388.414,383.541,388.414,388.414"/>
	<g>
		<path style="fill:#86C250;" d="M291.31,79.448h35.31V26.483h-35.31V79.448z"/>
		<path style="fill:#86C250;" d="M344.276,35.31h-70.621c-4.873,0-8.828-3.946-8.828-8.828s3.955-8.828,8.828-8.828h70.621
			c4.873,0,8.828,3.946,8.828,8.828S349.149,35.31,344.276,35.31"/>
		<path style="fill:#86C250;" d="M344.276,88.276h-70.621c-4.873,0-8.828-3.946-8.828-8.828c0-4.882,3.955-8.828,8.828-8.828h70.621
			c4.873,0,8.828,3.946,8.828,8.828C353.103,84.33,349.149,88.276,344.276,88.276"/>
		<path style="fill:#86C250;" d="M494.345,397.241L494.345,397.241c-9.71,0-17.655-7.945-17.655-17.655V273.655
			c0-9.71,7.945-17.655,17.655-17.655S512,263.945,512,273.655v105.931C512,389.297,504.055,397.241,494.345,397.241"/>
	</g>
	<g>
		<path style="fill:#B9A795;" d="M379.586,238.345c0,19.5-15.81,35.31-35.31,35.31c-19.5,0-35.31-15.81-35.31-35.31
			s15.81-35.31,35.31-35.31C363.776,203.034,379.586,218.845,379.586,238.345"/>
		<path style="fill:#B9A795;" d="M167.724,211.862h-52.966c-4.873,0-8.828-3.946-8.828-8.828s3.955-8.828,8.828-8.828h52.966
			c4.873,0,8.828,3.946,8.828,8.828S172.597,211.862,167.724,211.862"/>
		<path style="fill:#B9A795;" d="M203.034,247.172h-88.276c-4.873,0-8.828-3.946-8.828-8.828c0-4.882,3.955-8.828,8.828-8.828
			h88.276c4.873,0,8.828,3.946,8.828,8.828C211.862,243.226,207.907,247.172,203.034,247.172"/>
	</g>
	<g>
		<path style="fill:#50742F;" d="M476.69,300.138H512v-17.655h-35.31V300.138z"/>
		<path style="fill:#50742F;" d="M476.69,335.448H512v-17.655h-35.31V335.448z"/>
		<path style="fill:#50742F;" d="M476.69,370.759H512v-17.655h-35.31V370.759z"/>
	</g>
</g>
</svg>